<mxfile host="app.diagrams.net" agent="Mozilla/5.0 (Windows NT 10.0; Win64; x64) AppleWebKit/537.36 (KHTML, like Gecko) Chrome/130.0.0.0 Safari/537.36" version="24.7.17">
  <diagram id="C5RBs43oDa-KdzZeNtuy" name="Page-1">
    <mxGraphModel dx="2867" dy="1340" grid="1" gridSize="10" guides="1" tooltips="1" connect="1" arrows="1" fold="1" page="1" pageScale="1" pageWidth="2339" pageHeight="3300" math="0" shadow="0">
      <root>
        <mxCell id="WIyWlLk6GJQsqaUBKTNV-0" />
        <mxCell id="WIyWlLk6GJQsqaUBKTNV-1" parent="WIyWlLk6GJQsqaUBKTNV-0" />
        <mxCell id="zkfFHV4jXpPFQw0GAbJ--0" value="&lt;&lt;Interface&gt;&gt;&#xa;PizzaFactory" style="swimlane;fontStyle=2;align=center;verticalAlign=top;childLayout=stackLayout;horizontal=1;startSize=40;horizontalStack=0;resizeParent=1;resizeLast=0;collapsible=1;marginBottom=0;rounded=0;shadow=0;strokeWidth=1;" parent="WIyWlLk6GJQsqaUBKTNV-1" vertex="1">
          <mxGeometry x="690" y="1260" width="180" height="48" as="geometry">
            <mxRectangle x="230" y="140" width="160" height="26" as="alternateBounds" />
          </mxGeometry>
        </mxCell>
        <mxCell id="zkfFHV4jXpPFQw0GAbJ--4" value="" style="line;html=1;strokeWidth=1;align=left;verticalAlign=middle;spacingTop=-1;spacingLeft=3;spacingRight=3;rotatable=0;labelPosition=right;points=[];portConstraint=eastwest;" parent="zkfFHV4jXpPFQw0GAbJ--0" vertex="1">
          <mxGeometry y="40" width="180" height="8" as="geometry" />
        </mxCell>
        <mxCell id="zkfFHV4jXpPFQw0GAbJ--6" value="ChicagoPizza" style="swimlane;fontStyle=0;align=center;verticalAlign=top;childLayout=stackLayout;horizontal=1;startSize=26;horizontalStack=0;resizeParent=1;resizeLast=0;collapsible=1;marginBottom=0;rounded=0;shadow=0;strokeWidth=1;" parent="WIyWlLk6GJQsqaUBKTNV-1" vertex="1">
          <mxGeometry x="600" y="1420" width="180" height="34" as="geometry">
            <mxRectangle x="130" y="380" width="160" height="26" as="alternateBounds" />
          </mxGeometry>
        </mxCell>
        <mxCell id="zkfFHV4jXpPFQw0GAbJ--9" value="" style="line;html=1;strokeWidth=1;align=left;verticalAlign=middle;spacingTop=-1;spacingLeft=3;spacingRight=3;rotatable=0;labelPosition=right;points=[];portConstraint=eastwest;" parent="zkfFHV4jXpPFQw0GAbJ--6" vertex="1">
          <mxGeometry y="26" width="180" height="8" as="geometry" />
        </mxCell>
        <mxCell id="zkfFHV4jXpPFQw0GAbJ--12" value="" style="endArrow=block;endSize=10;endFill=0;shadow=0;strokeWidth=1;rounded=0;curved=0;edgeStyle=elbowEdgeStyle;elbow=vertical;" parent="WIyWlLk6GJQsqaUBKTNV-1" source="zkfFHV4jXpPFQw0GAbJ--6" target="zkfFHV4jXpPFQw0GAbJ--0" edge="1">
          <mxGeometry width="160" relative="1" as="geometry">
            <mxPoint x="690" y="1263" as="sourcePoint" />
            <mxPoint x="690" y="1263" as="targetPoint" />
          </mxGeometry>
        </mxCell>
        <mxCell id="zkfFHV4jXpPFQw0GAbJ--13" value="NYPizza" style="swimlane;fontStyle=0;align=center;verticalAlign=top;childLayout=stackLayout;horizontal=1;startSize=26;horizontalStack=0;resizeParent=1;resizeLast=0;collapsible=1;marginBottom=0;rounded=0;shadow=0;strokeWidth=1;" parent="WIyWlLk6GJQsqaUBKTNV-1" vertex="1">
          <mxGeometry x="820" y="1420" width="180" height="34" as="geometry">
            <mxRectangle x="340" y="380" width="170" height="26" as="alternateBounds" />
          </mxGeometry>
        </mxCell>
        <mxCell id="zkfFHV4jXpPFQw0GAbJ--15" value="" style="line;html=1;strokeWidth=1;align=left;verticalAlign=middle;spacingTop=-1;spacingLeft=3;spacingRight=3;rotatable=0;labelPosition=right;points=[];portConstraint=eastwest;" parent="zkfFHV4jXpPFQw0GAbJ--13" vertex="1">
          <mxGeometry y="26" width="180" height="8" as="geometry" />
        </mxCell>
        <mxCell id="zkfFHV4jXpPFQw0GAbJ--16" value="" style="endArrow=block;endSize=10;endFill=0;shadow=0;strokeWidth=1;rounded=0;curved=0;edgeStyle=elbowEdgeStyle;elbow=vertical;" parent="WIyWlLk6GJQsqaUBKTNV-1" source="zkfFHV4jXpPFQw0GAbJ--13" target="zkfFHV4jXpPFQw0GAbJ--0" edge="1">
          <mxGeometry width="160" relative="1" as="geometry">
            <mxPoint x="700" y="1433" as="sourcePoint" />
            <mxPoint x="800" y="1331" as="targetPoint" />
          </mxGeometry>
        </mxCell>
        <mxCell id="zkfFHV4jXpPFQw0GAbJ--17" value="&lt;&lt;abstract&gt;&gt;&#xa;Pizza" style="swimlane;fontStyle=2;align=center;verticalAlign=top;childLayout=stackLayout;horizontal=1;startSize=40;horizontalStack=0;resizeParent=1;resizeLast=0;collapsible=1;marginBottom=0;rounded=0;shadow=0;strokeWidth=1;" parent="WIyWlLk6GJQsqaUBKTNV-1" vertex="1">
          <mxGeometry x="998" y="1160" width="280" height="130" as="geometry">
            <mxRectangle x="550" y="140" width="160" height="26" as="alternateBounds" />
          </mxGeometry>
        </mxCell>
        <mxCell id="zkfFHV4jXpPFQw0GAbJ--18" value="- toppings: ArrayList&lt;Topping&gt;" style="text;align=left;verticalAlign=top;spacingLeft=4;spacingRight=4;overflow=hidden;rotatable=0;points=[[0,0.5],[1,0.5]];portConstraint=eastwest;" parent="zkfFHV4jXpPFQw0GAbJ--17" vertex="1">
          <mxGeometry y="40" width="280" height="26" as="geometry" />
        </mxCell>
        <mxCell id="zkfFHV4jXpPFQw0GAbJ--19" value="- crust: Crust" style="text;align=left;verticalAlign=top;spacingLeft=4;spacingRight=4;overflow=hidden;rotatable=0;points=[[0,0.5],[1,0.5]];portConstraint=eastwest;rounded=0;shadow=0;html=0;" parent="zkfFHV4jXpPFQw0GAbJ--17" vertex="1">
          <mxGeometry y="66" width="280" height="26" as="geometry" />
        </mxCell>
        <mxCell id="zkfFHV4jXpPFQw0GAbJ--20" value="- size: Size" style="text;align=left;verticalAlign=top;spacingLeft=4;spacingRight=4;overflow=hidden;rotatable=0;points=[[0,0.5],[1,0.5]];portConstraint=eastwest;rounded=0;shadow=0;html=0;" parent="zkfFHV4jXpPFQw0GAbJ--17" vertex="1">
          <mxGeometry y="92" width="280" height="26" as="geometry" />
        </mxCell>
        <mxCell id="zkfFHV4jXpPFQw0GAbJ--23" value="" style="line;html=1;strokeWidth=1;align=left;verticalAlign=middle;spacingTop=-1;spacingLeft=3;spacingRight=3;rotatable=0;labelPosition=right;points=[];portConstraint=eastwest;" parent="zkfFHV4jXpPFQw0GAbJ--17" vertex="1">
          <mxGeometry y="118" width="280" height="8" as="geometry" />
        </mxCell>
        <mxCell id="vXlB-1sTZ8Sb46rwbeoa-177" value="" style="endArrow=diamondThin;endFill=0;endSize=24;html=1;rounded=0;entryX=1;entryY=0.5;entryDx=0;entryDy=0;exitX=0;exitY=0.5;exitDx=0;exitDy=0;edgeStyle=orthogonalEdgeStyle;" edge="1" parent="WIyWlLk6GJQsqaUBKTNV-1" source="zkfFHV4jXpPFQw0GAbJ--20" target="zkfFHV4jXpPFQw0GAbJ--0">
          <mxGeometry width="160" relative="1" as="geometry">
            <mxPoint x="998.0019999999997" y="1344.836" as="sourcePoint" />
            <mxPoint x="869.9999999999995" y="1213.5000000000002" as="targetPoint" />
          </mxGeometry>
        </mxCell>
        <mxCell id="vXlB-1sTZ8Sb46rwbeoa-179" value="&lt;&lt;Enumeration&gt;&gt;&#xa;Topping" style="swimlane;fontStyle=0;align=center;verticalAlign=top;childLayout=stackLayout;horizontal=1;startSize=40;horizontalStack=0;resizeParent=1;resizeLast=0;collapsible=1;marginBottom=0;rounded=0;shadow=0;strokeWidth=1;" vertex="1" parent="WIyWlLk6GJQsqaUBKTNV-1">
          <mxGeometry x="1570" y="1050" width="280" height="260" as="geometry">
            <mxRectangle x="550" y="140" width="160" height="26" as="alternateBounds" />
          </mxGeometry>
        </mxCell>
        <mxCell id="vXlB-1sTZ8Sb46rwbeoa-180" value="+ MUSHROOM&#xa;+ PINEAPPLE&#xa;+ BLACK_OLIVES&#xa;+ CHEDDAR&#xa;+ PROVOLONE&#xa;+ SPINACH&#xa;+ HAM&#xa;+ BEEF&#xa;+ SAUSAGE&#xa;+ PEPPERONI&#xa;+ GREEN_PEPPER&#xa;+ ONION&#xa;+ OXTAIL&#xa;+ BBQ_CHICKEN" style="text;align=left;verticalAlign=top;spacingLeft=4;spacingRight=4;overflow=hidden;rotatable=0;points=[[0,0.5],[1,0.5]];portConstraint=eastwest;" vertex="1" parent="vXlB-1sTZ8Sb46rwbeoa-179">
          <mxGeometry y="40" width="280" height="210" as="geometry" />
        </mxCell>
        <mxCell id="vXlB-1sTZ8Sb46rwbeoa-183" value="" style="line;html=1;strokeWidth=1;align=left;verticalAlign=middle;spacingTop=-1;spacingLeft=3;spacingRight=3;rotatable=0;labelPosition=right;points=[];portConstraint=eastwest;" vertex="1" parent="vXlB-1sTZ8Sb46rwbeoa-179">
          <mxGeometry y="250" width="280" height="8" as="geometry" />
        </mxCell>
        <mxCell id="vXlB-1sTZ8Sb46rwbeoa-187" value="&lt;&lt;Enumeration&gt;&gt;&#xa;Crust" style="swimlane;fontStyle=0;align=center;verticalAlign=top;childLayout=stackLayout;horizontal=1;startSize=40;horizontalStack=0;resizeParent=1;resizeLast=0;collapsible=1;marginBottom=0;rounded=0;shadow=0;strokeWidth=1;" vertex="1" parent="WIyWlLk6GJQsqaUBKTNV-1">
          <mxGeometry x="1570" y="1320" width="280" height="150" as="geometry">
            <mxRectangle x="550" y="140" width="160" height="26" as="alternateBounds" />
          </mxGeometry>
        </mxCell>
        <mxCell id="vXlB-1sTZ8Sb46rwbeoa-188" value="+ DEEPDISH&#xa;+ PAN&#xa;+ STUFFED&#xa;+ BROOKLYN&#xa;+ THIN&#xa;+ HANDTOSSED" style="text;align=left;verticalAlign=top;spacingLeft=4;spacingRight=4;overflow=hidden;rotatable=0;points=[[0,0.5],[1,0.5]];portConstraint=eastwest;" vertex="1" parent="vXlB-1sTZ8Sb46rwbeoa-187">
          <mxGeometry y="40" width="280" height="100" as="geometry" />
        </mxCell>
        <mxCell id="vXlB-1sTZ8Sb46rwbeoa-189" value="" style="line;html=1;strokeWidth=1;align=left;verticalAlign=middle;spacingTop=-1;spacingLeft=3;spacingRight=3;rotatable=0;labelPosition=right;points=[];portConstraint=eastwest;" vertex="1" parent="vXlB-1sTZ8Sb46rwbeoa-187">
          <mxGeometry y="140" width="280" height="8" as="geometry" />
        </mxCell>
        <mxCell id="vXlB-1sTZ8Sb46rwbeoa-192" value="&lt;&lt;Enumeration&gt;&gt;&#xa;Size" style="swimlane;fontStyle=0;align=center;verticalAlign=top;childLayout=stackLayout;horizontal=1;startSize=40;horizontalStack=0;resizeParent=1;resizeLast=0;collapsible=1;marginBottom=0;rounded=0;shadow=0;strokeWidth=1;" vertex="1" parent="WIyWlLk6GJQsqaUBKTNV-1">
          <mxGeometry x="1570" y="1480" width="280" height="110" as="geometry">
            <mxRectangle x="550" y="140" width="160" height="26" as="alternateBounds" />
          </mxGeometry>
        </mxCell>
        <mxCell id="vXlB-1sTZ8Sb46rwbeoa-193" value="+ SMALL&#xa;+ MEDIUM&#xa;+ LARGE" style="text;align=left;verticalAlign=top;spacingLeft=4;spacingRight=4;overflow=hidden;rotatable=0;points=[[0,0.5],[1,0.5]];portConstraint=eastwest;" vertex="1" parent="vXlB-1sTZ8Sb46rwbeoa-192">
          <mxGeometry y="40" width="280" height="60" as="geometry" />
        </mxCell>
        <mxCell id="vXlB-1sTZ8Sb46rwbeoa-194" value="" style="line;html=1;strokeWidth=1;align=left;verticalAlign=middle;spacingTop=-1;spacingLeft=3;spacingRight=3;rotatable=0;labelPosition=right;points=[];portConstraint=eastwest;" vertex="1" parent="vXlB-1sTZ8Sb46rwbeoa-192">
          <mxGeometry y="100" width="280" height="8" as="geometry" />
        </mxCell>
        <mxCell id="vXlB-1sTZ8Sb46rwbeoa-195" value="" style="endArrow=diamondThin;endFill=0;endSize=24;html=1;rounded=0;exitX=0.003;exitY=0.236;exitDx=0;exitDy=0;exitPerimeter=0;edgeStyle=orthogonalEdgeStyle;entryX=1;entryY=0.17;entryDx=0;entryDy=0;entryPerimeter=0;" edge="1" parent="WIyWlLk6GJQsqaUBKTNV-1" source="vXlB-1sTZ8Sb46rwbeoa-180" target="zkfFHV4jXpPFQw0GAbJ--17">
          <mxGeometry width="160" relative="1" as="geometry">
            <mxPoint x="1340" y="1190" as="sourcePoint" />
            <mxPoint x="1280" y="1180" as="targetPoint" />
          </mxGeometry>
        </mxCell>
        <mxCell id="vXlB-1sTZ8Sb46rwbeoa-196" value="" style="endArrow=diamondThin;endFill=0;endSize=24;html=1;rounded=0;entryX=1;entryY=0.5;entryDx=0;entryDy=0;exitX=-0.006;exitY=0.323;exitDx=0;exitDy=0;exitPerimeter=0;edgeStyle=orthogonalEdgeStyle;" edge="1" parent="WIyWlLk6GJQsqaUBKTNV-1" source="vXlB-1sTZ8Sb46rwbeoa-188">
          <mxGeometry width="160" relative="1" as="geometry">
            <mxPoint x="1571" y="1241" as="sourcePoint" />
            <mxPoint x="1278" y="1240" as="targetPoint" />
            <Array as="points">
              <mxPoint x="1420" y="1392" />
              <mxPoint x="1420" y="1240" />
            </Array>
          </mxGeometry>
        </mxCell>
        <mxCell id="vXlB-1sTZ8Sb46rwbeoa-197" value="" style="endArrow=diamondThin;endFill=0;endSize=24;html=1;rounded=0;exitX=-0.006;exitY=0.323;exitDx=0;exitDy=0;exitPerimeter=0;edgeStyle=orthogonalEdgeStyle;entryX=1.002;entryY=0.43;entryDx=0;entryDy=0;entryPerimeter=0;" edge="1" parent="WIyWlLk6GJQsqaUBKTNV-1">
          <mxGeometry width="160" relative="1" as="geometry">
            <mxPoint x="1570" y="1542" as="sourcePoint" />
            <mxPoint x="1278.5599999999995" y="1286.1600000000003" as="targetPoint" />
            <Array as="points">
              <mxPoint x="1350" y="1542" />
              <mxPoint x="1350" y="1286" />
            </Array>
          </mxGeometry>
        </mxCell>
        <mxCell id="vXlB-1sTZ8Sb46rwbeoa-198" value="Deluxe" style="swimlane;fontStyle=1;align=center;verticalAlign=top;childLayout=stackLayout;horizontal=1;startSize=26;horizontalStack=0;resizeParent=1;resizeParentMax=0;resizeLast=0;collapsible=1;marginBottom=0;whiteSpace=wrap;html=1;" vertex="1" parent="WIyWlLk6GJQsqaUBKTNV-1">
          <mxGeometry x="830" y="1690" width="160" height="34" as="geometry" />
        </mxCell>
        <mxCell id="vXlB-1sTZ8Sb46rwbeoa-200" value="" style="line;strokeWidth=1;fillColor=none;align=left;verticalAlign=middle;spacingTop=-1;spacingLeft=3;spacingRight=3;rotatable=0;labelPosition=right;points=[];portConstraint=eastwest;strokeColor=inherit;" vertex="1" parent="vXlB-1sTZ8Sb46rwbeoa-198">
          <mxGeometry y="26" width="160" height="8" as="geometry" />
        </mxCell>
        <mxCell id="vXlB-1sTZ8Sb46rwbeoa-202" value="Extends" style="endArrow=block;endSize=16;endFill=0;html=1;rounded=0;exitX=0.5;exitY=0;exitDx=0;exitDy=0;edgeStyle=orthogonalEdgeStyle;" edge="1" parent="WIyWlLk6GJQsqaUBKTNV-1">
          <mxGeometry width="160" relative="1" as="geometry">
            <mxPoint x="870" y="1687.76" as="sourcePoint" />
            <mxPoint x="1038" y="1290" as="targetPoint" />
            <Array as="points">
              <mxPoint x="870" y="1577.76" />
              <mxPoint x="1038" y="1577.76" />
            </Array>
          </mxGeometry>
        </mxCell>
        <mxCell id="vXlB-1sTZ8Sb46rwbeoa-207" value="BBQChicken" style="swimlane;fontStyle=1;align=center;verticalAlign=top;childLayout=stackLayout;horizontal=1;startSize=26;horizontalStack=0;resizeParent=1;resizeParentMax=0;resizeLast=0;collapsible=1;marginBottom=0;whiteSpace=wrap;html=1;" vertex="1" parent="WIyWlLk6GJQsqaUBKTNV-1">
          <mxGeometry x="998" y="1690" width="160" height="34" as="geometry" />
        </mxCell>
        <mxCell id="vXlB-1sTZ8Sb46rwbeoa-208" value="" style="line;strokeWidth=1;fillColor=none;align=left;verticalAlign=middle;spacingTop=-1;spacingLeft=3;spacingRight=3;rotatable=0;labelPosition=right;points=[];portConstraint=eastwest;strokeColor=inherit;" vertex="1" parent="vXlB-1sTZ8Sb46rwbeoa-207">
          <mxGeometry y="26" width="160" height="8" as="geometry" />
        </mxCell>
        <mxCell id="vXlB-1sTZ8Sb46rwbeoa-210" value="Meatzza" style="swimlane;fontStyle=1;align=center;verticalAlign=top;childLayout=stackLayout;horizontal=1;startSize=26;horizontalStack=0;resizeParent=1;resizeParentMax=0;resizeLast=0;collapsible=1;marginBottom=0;whiteSpace=wrap;html=1;" vertex="1" parent="WIyWlLk6GJQsqaUBKTNV-1">
          <mxGeometry x="1170" y="1690" width="160" height="34" as="geometry" />
        </mxCell>
        <mxCell id="vXlB-1sTZ8Sb46rwbeoa-211" value="" style="line;strokeWidth=1;fillColor=none;align=left;verticalAlign=middle;spacingTop=-1;spacingLeft=3;spacingRight=3;rotatable=0;labelPosition=right;points=[];portConstraint=eastwest;strokeColor=inherit;" vertex="1" parent="vXlB-1sTZ8Sb46rwbeoa-210">
          <mxGeometry y="26" width="160" height="8" as="geometry" />
        </mxCell>
        <mxCell id="vXlB-1sTZ8Sb46rwbeoa-213" value="BuildYourOwn" style="swimlane;fontStyle=1;align=center;verticalAlign=top;childLayout=stackLayout;horizontal=1;startSize=26;horizontalStack=0;resizeParent=1;resizeParentMax=0;resizeLast=0;collapsible=1;marginBottom=0;whiteSpace=wrap;html=1;" vertex="1" parent="WIyWlLk6GJQsqaUBKTNV-1">
          <mxGeometry x="1340" y="1690" width="210" height="34" as="geometry" />
        </mxCell>
        <mxCell id="vXlB-1sTZ8Sb46rwbeoa-214" value="" style="line;strokeWidth=1;fillColor=none;align=left;verticalAlign=middle;spacingTop=-1;spacingLeft=3;spacingRight=3;rotatable=0;labelPosition=right;points=[];portConstraint=eastwest;strokeColor=inherit;" vertex="1" parent="vXlB-1sTZ8Sb46rwbeoa-213">
          <mxGeometry y="26" width="210" height="8" as="geometry" />
        </mxCell>
        <mxCell id="vXlB-1sTZ8Sb46rwbeoa-216" value="Extends" style="endArrow=block;endSize=16;endFill=0;html=1;rounded=0;edgeStyle=orthogonalEdgeStyle;" edge="1" parent="WIyWlLk6GJQsqaUBKTNV-1">
          <mxGeometry width="160" relative="1" as="geometry">
            <mxPoint x="1108" y="1690" as="sourcePoint" />
            <mxPoint x="1108" y="1290" as="targetPoint" />
            <Array as="points">
              <mxPoint x="1108" y="1688" />
            </Array>
          </mxGeometry>
        </mxCell>
        <mxCell id="vXlB-1sTZ8Sb46rwbeoa-217" value="Extends" style="endArrow=block;endSize=16;endFill=0;html=1;rounded=0;edgeStyle=orthogonalEdgeStyle;" edge="1" parent="WIyWlLk6GJQsqaUBKTNV-1">
          <mxGeometry width="160" relative="1" as="geometry">
            <mxPoint x="1200" y="1690" as="sourcePoint" />
            <mxPoint x="1200" y="1290" as="targetPoint" />
            <Array as="points">
              <mxPoint x="1200" y="1688" />
            </Array>
          </mxGeometry>
        </mxCell>
        <mxCell id="vXlB-1sTZ8Sb46rwbeoa-218" value="Extends" style="endArrow=block;endSize=16;endFill=0;html=1;rounded=0;edgeStyle=orthogonalEdgeStyle;exitX=0.5;exitY=0;exitDx=0;exitDy=0;" edge="1" parent="WIyWlLk6GJQsqaUBKTNV-1" source="vXlB-1sTZ8Sb46rwbeoa-213">
          <mxGeometry width="160" relative="1" as="geometry">
            <mxPoint x="1249.6" y="1690" as="sourcePoint" />
            <mxPoint x="1250" y="1290" as="targetPoint" />
            <Array as="points">
              <mxPoint x="1445" y="1610" />
              <mxPoint x="1250" y="1610" />
            </Array>
          </mxGeometry>
        </mxCell>
        <mxCell id="vXlB-1sTZ8Sb46rwbeoa-219" value="Order" style="swimlane;fontStyle=1;align=center;verticalAlign=top;childLayout=stackLayout;horizontal=1;startSize=26;horizontalStack=0;resizeParent=1;resizeParentMax=0;resizeLast=0;collapsible=1;marginBottom=0;whiteSpace=wrap;html=1;" vertex="1" parent="WIyWlLk6GJQsqaUBKTNV-1">
          <mxGeometry x="1048" y="880" width="180" height="78" as="geometry" />
        </mxCell>
        <mxCell id="vXlB-1sTZ8Sb46rwbeoa-220" value="- number: int&lt;div&gt;- pizzas: ArrayList&amp;lt;Pizza&amp;gt;&lt;/div&gt;" style="text;strokeColor=none;fillColor=none;align=left;verticalAlign=top;spacingLeft=4;spacingRight=4;overflow=hidden;rotatable=0;points=[[0,0.5],[1,0.5]];portConstraint=eastwest;whiteSpace=wrap;html=1;" vertex="1" parent="vXlB-1sTZ8Sb46rwbeoa-219">
          <mxGeometry y="26" width="180" height="44" as="geometry" />
        </mxCell>
        <mxCell id="vXlB-1sTZ8Sb46rwbeoa-221" value="" style="line;strokeWidth=1;fillColor=none;align=left;verticalAlign=middle;spacingTop=-1;spacingLeft=3;spacingRight=3;rotatable=0;labelPosition=right;points=[];portConstraint=eastwest;strokeColor=inherit;" vertex="1" parent="vXlB-1sTZ8Sb46rwbeoa-219">
          <mxGeometry y="70" width="180" height="8" as="geometry" />
        </mxCell>
        <mxCell id="vXlB-1sTZ8Sb46rwbeoa-223" value="" style="endArrow=diamondThin;endFill=1;endSize=24;html=1;rounded=0;exitX=0.5;exitY=0;exitDx=0;exitDy=0;entryX=0.507;entryY=0.841;entryDx=0;entryDy=0;entryPerimeter=0;" edge="1" parent="WIyWlLk6GJQsqaUBKTNV-1" source="zkfFHV4jXpPFQw0GAbJ--17" target="vXlB-1sTZ8Sb46rwbeoa-221">
          <mxGeometry width="160" relative="1" as="geometry">
            <mxPoint x="1120" y="1010" as="sourcePoint" />
            <mxPoint x="1139.44" y="960.182" as="targetPoint" />
          </mxGeometry>
        </mxCell>
        <mxCell id="vXlB-1sTZ8Sb46rwbeoa-224" value="MainController" style="swimlane;fontStyle=1;align=center;verticalAlign=top;childLayout=stackLayout;horizontal=1;startSize=26;horizontalStack=0;resizeParent=1;resizeParentMax=0;resizeLast=0;collapsible=1;marginBottom=0;whiteSpace=wrap;html=1;" vertex="1" parent="WIyWlLk6GJQsqaUBKTNV-1">
          <mxGeometry x="1053" y="633" width="170" height="178" as="geometry" />
        </mxCell>
        <mxCell id="vXlB-1sTZ8Sb46rwbeoa-225" value="- welcomeText: Label&lt;div&gt;- B_OrderPlaced: Button&lt;/div&gt;&lt;div&gt;- primaryStage: Stage&lt;/div&gt;&lt;div&gt;- primaryScene: Scene&lt;/div&gt;&lt;div&gt;- currentOrder: Order&lt;/div&gt;&lt;div&gt;- orderList: ArrayList&amp;lt;Order&amp;gt;&lt;/div&gt;&lt;div&gt;- counter: int&lt;/div&gt;" style="text;strokeColor=none;fillColor=none;align=left;verticalAlign=top;spacingLeft=4;spacingRight=4;overflow=hidden;rotatable=0;points=[[0,0.5],[1,0.5]];portConstraint=eastwest;whiteSpace=wrap;html=1;" vertex="1" parent="vXlB-1sTZ8Sb46rwbeoa-224">
          <mxGeometry y="26" width="170" height="144" as="geometry" />
        </mxCell>
        <mxCell id="vXlB-1sTZ8Sb46rwbeoa-226" value="" style="line;strokeWidth=1;fillColor=none;align=left;verticalAlign=middle;spacingTop=-1;spacingLeft=3;spacingRight=3;rotatable=0;labelPosition=right;points=[];portConstraint=eastwest;strokeColor=inherit;" vertex="1" parent="vXlB-1sTZ8Sb46rwbeoa-224">
          <mxGeometry y="170" width="170" height="8" as="geometry" />
        </mxCell>
        <mxCell id="vXlB-1sTZ8Sb46rwbeoa-228" value="" style="endArrow=diamondThin;endFill=1;endSize=24;html=1;rounded=0;exitX=0.462;exitY=0.02;exitDx=0;exitDy=0;exitPerimeter=0;entryX=0.535;entryY=0.388;entryDx=0;entryDy=0;entryPerimeter=0;" edge="1" parent="WIyWlLk6GJQsqaUBKTNV-1">
          <mxGeometry width="160" relative="1" as="geometry">
            <mxPoint x="1131.16" y="879.5600000000001" as="sourcePoint" />
            <mxPoint x="1130.9499999999998" y="811.104" as="targetPoint" />
          </mxGeometry>
        </mxCell>
        <mxCell id="vXlB-1sTZ8Sb46rwbeoa-229" value="CurrentOrderController" style="swimlane;fontStyle=1;align=center;verticalAlign=top;childLayout=stackLayout;horizontal=1;startSize=26;horizontalStack=0;resizeParent=1;resizeParentMax=0;resizeLast=0;collapsible=1;marginBottom=0;whiteSpace=wrap;html=1;" vertex="1" parent="WIyWlLk6GJQsqaUBKTNV-1">
          <mxGeometry x="1250" y="690" width="170" height="268" as="geometry" />
        </mxCell>
        <mxCell id="vXlB-1sTZ8Sb46rwbeoa-230" value="- bt_addpizza: Button&lt;div&gt;- bt_placeorder: Button&lt;/div&gt;&lt;div&gt;- bt_removeOrder: Button&lt;/div&gt;&lt;div&gt;- bt_removePizza: Button&lt;/div&gt;&lt;div&gt;- lv_pizzas: ListView&amp;lt;Pizza&amp;gt;&lt;/div&gt;&lt;div&gt;- txt_currentorderheader: Text&lt;/div&gt;&lt;div&gt;- txt_orderno: Text&lt;/div&gt;&lt;div&gt;- txt_ordertotal: Text&lt;/div&gt;&lt;div&gt;- txt_subtotal_Text&lt;/div&gt;&lt;div&gt;- txt_tax: Text&lt;/div&gt;&lt;div&gt;- mainController: MainController&lt;/div&gt;&lt;div&gt;- stage: Stage&lt;/div&gt;&lt;div&gt;- primaryScene: Scene&lt;/div&gt;&lt;div&gt;- primaryStage: Stage&lt;/div&gt;" style="text;strokeColor=none;fillColor=none;align=left;verticalAlign=top;spacingLeft=4;spacingRight=4;overflow=hidden;rotatable=0;points=[[0,0.5],[1,0.5]];portConstraint=eastwest;whiteSpace=wrap;html=1;" vertex="1" parent="vXlB-1sTZ8Sb46rwbeoa-229">
          <mxGeometry y="26" width="170" height="234" as="geometry" />
        </mxCell>
        <mxCell id="vXlB-1sTZ8Sb46rwbeoa-231" value="" style="line;strokeWidth=1;fillColor=none;align=left;verticalAlign=middle;spacingTop=-1;spacingLeft=3;spacingRight=3;rotatable=0;labelPosition=right;points=[];portConstraint=eastwest;strokeColor=inherit;" vertex="1" parent="vXlB-1sTZ8Sb46rwbeoa-229">
          <mxGeometry y="260" width="170" height="8" as="geometry" />
        </mxCell>
        <mxCell id="vXlB-1sTZ8Sb46rwbeoa-232" value="OrderController" style="swimlane;fontStyle=1;align=center;verticalAlign=top;childLayout=stackLayout;horizontal=1;startSize=26;horizontalStack=0;resizeParent=1;resizeParentMax=0;resizeLast=0;collapsible=1;marginBottom=0;whiteSpace=wrap;html=1;" vertex="1" parent="WIyWlLk6GJQsqaUBKTNV-1">
          <mxGeometry x="1460" y="480" width="170" height="518" as="geometry" />
        </mxCell>
        <mxCell id="vXlB-1sTZ8Sb46rwbeoa-233" value="- bt_add: Button&lt;div&gt;- bt_placeorder: Button&lt;/div&gt;&lt;div&gt;- bt_remove: Button&lt;/div&gt;&lt;div&gt;- cb_pizzatype: ComboBox&amp;lt;String&amp;gt;&lt;/div&gt;&lt;div&gt;- sp_pizza: StackPane&lt;/div&gt;&lt;div&gt;- lv_availtoppings: ListView&amp;lt;Topping&amp;gt;&lt;/div&gt;&lt;div&gt;- lv_chosentoppings: ListView&amp;lt;Topping&amp;gt;&lt;/div&gt;&lt;div&gt;- rb_chicagocrust: RadioButton&lt;/div&gt;&lt;div&gt;- rb_largesize: RadioButton&lt;/div&gt;&lt;div&gt;- rb_mediumsize: RadioButton&lt;/div&gt;&lt;div&gt;- rb_nycrust: RadioButton&lt;/div&gt;&lt;div&gt;- rb_smallsize: RadioButton&lt;/div&gt;&lt;div&gt;- tg_crust: ToggleGroup&lt;/div&gt;&lt;div&gt;- tg_size: ToggleGroup&lt;/div&gt;&lt;div&gt;- txt_add: Text&lt;/div&gt;&lt;div&gt;- txt_availabletoppings: Text&lt;/div&gt;&lt;div&gt;- txt_chosentoppings: Text&lt;/div&gt;&lt;div&gt;- txt_crust: Text&lt;/div&gt;&lt;div&gt;- txt_price: Text&lt;/div&gt;&lt;div&gt;- txt_priceheader: Text&lt;/div&gt;&lt;div&gt;- txt_remove: Text&lt;/div&gt;&lt;div&gt;- txt_size: Text&lt;/div&gt;&lt;div&gt;- txt_toppings: Text&lt;/div&gt;&lt;div&gt;- mainController: MainController&lt;/div&gt;&lt;div&gt;- stage: Stage&lt;/div&gt;&lt;div&gt;- primaryScene: Scene&lt;/div&gt;&lt;div&gt;- primaryStage: Stage&lt;/div&gt;" style="text;strokeColor=none;fillColor=none;align=left;verticalAlign=top;spacingLeft=4;spacingRight=4;overflow=hidden;rotatable=0;points=[[0,0.5],[1,0.5]];portConstraint=eastwest;whiteSpace=wrap;html=1;" vertex="1" parent="vXlB-1sTZ8Sb46rwbeoa-232">
          <mxGeometry y="26" width="170" height="484" as="geometry" />
        </mxCell>
        <mxCell id="vXlB-1sTZ8Sb46rwbeoa-234" value="" style="line;strokeWidth=1;fillColor=none;align=left;verticalAlign=middle;spacingTop=-1;spacingLeft=3;spacingRight=3;rotatable=0;labelPosition=right;points=[];portConstraint=eastwest;strokeColor=inherit;" vertex="1" parent="vXlB-1sTZ8Sb46rwbeoa-232">
          <mxGeometry y="510" width="170" height="8" as="geometry" />
        </mxCell>
        <mxCell id="vXlB-1sTZ8Sb46rwbeoa-235" value="BillViewController" style="swimlane;fontStyle=1;align=center;verticalAlign=top;childLayout=stackLayout;horizontal=1;startSize=26;horizontalStack=0;resizeParent=1;resizeParentMax=0;resizeLast=0;collapsible=1;marginBottom=0;whiteSpace=wrap;html=1;" vertex="1" parent="WIyWlLk6GJQsqaUBKTNV-1">
          <mxGeometry x="810" y="570" width="170" height="268" as="geometry" />
        </mxCell>
        <mxCell id="vXlB-1sTZ8Sb46rwbeoa-236" value="- lv_bill: ListView&amp;lt;String&amp;gt;&lt;div&gt;- tf_orderTotal: TextField&lt;/div&gt;&lt;div&gt;- B_cancelOrder: Button&lt;/div&gt;&lt;div&gt;- B_exportStore: Button&lt;/div&gt;&lt;div&gt;- cb_orderNumbers: ComboBox&amp;lt;String&amp;gt;&lt;/div&gt;&lt;div&gt;- mainController: MainController&lt;/div&gt;&lt;div&gt;- stage: Stage&lt;/div&gt;&lt;div&gt;- primaryScene: Scene&lt;/div&gt;&lt;div&gt;- primaryStage: Stage&lt;/div&gt;&lt;div&gt;&lt;br&gt;&lt;/div&gt;" style="text;strokeColor=none;fillColor=none;align=left;verticalAlign=top;spacingLeft=4;spacingRight=4;overflow=hidden;rotatable=0;points=[[0,0.5],[1,0.5]];portConstraint=eastwest;whiteSpace=wrap;html=1;" vertex="1" parent="vXlB-1sTZ8Sb46rwbeoa-235">
          <mxGeometry y="26" width="170" height="234" as="geometry" />
        </mxCell>
        <mxCell id="vXlB-1sTZ8Sb46rwbeoa-237" value="" style="line;strokeWidth=1;fillColor=none;align=left;verticalAlign=middle;spacingTop=-1;spacingLeft=3;spacingRight=3;rotatable=0;labelPosition=right;points=[];portConstraint=eastwest;strokeColor=inherit;" vertex="1" parent="vXlB-1sTZ8Sb46rwbeoa-235">
          <mxGeometry y="260" width="170" height="8" as="geometry" />
        </mxCell>
        <mxCell id="vXlB-1sTZ8Sb46rwbeoa-238" value="" style="endArrow=diamondThin;endFill=1;endSize=24;html=1;rounded=0;entryX=0.5;entryY=0;entryDx=0;entryDy=0;edgeStyle=orthogonalEdgeStyle;exitX=1;exitY=0.063;exitDx=0;exitDy=0;exitPerimeter=0;" edge="1" parent="WIyWlLk6GJQsqaUBKTNV-1" source="vXlB-1sTZ8Sb46rwbeoa-225" target="vXlB-1sTZ8Sb46rwbeoa-229">
          <mxGeometry width="160" relative="1" as="geometry">
            <mxPoint x="1223" y="640" as="sourcePoint" />
            <mxPoint x="1383" y="640" as="targetPoint" />
            <Array as="points">
              <mxPoint x="1223" y="650" />
              <mxPoint x="1335" y="650" />
            </Array>
          </mxGeometry>
        </mxCell>
        <mxCell id="vXlB-1sTZ8Sb46rwbeoa-239" value="" style="endArrow=diamondThin;endFill=1;endSize=24;html=1;rounded=0;exitX=0.75;exitY=0;exitDx=0;exitDy=0;edgeStyle=orthogonalEdgeStyle;" edge="1" parent="WIyWlLk6GJQsqaUBKTNV-1" source="vXlB-1sTZ8Sb46rwbeoa-224">
          <mxGeometry width="160" relative="1" as="geometry">
            <mxPoint x="1300" y="550" as="sourcePoint" />
            <mxPoint x="1460" y="550" as="targetPoint" />
            <Array as="points">
              <mxPoint x="1181" y="550" />
            </Array>
          </mxGeometry>
        </mxCell>
        <mxCell id="vXlB-1sTZ8Sb46rwbeoa-240" value="" style="endArrow=diamondThin;endFill=1;endSize=24;html=1;rounded=0;entryX=1.002;entryY=0.47;entryDx=0;entryDy=0;entryPerimeter=0;exitX=0;exitY=0.336;exitDx=0;exitDy=0;exitPerimeter=0;" edge="1" parent="WIyWlLk6GJQsqaUBKTNV-1" source="vXlB-1sTZ8Sb46rwbeoa-225" target="vXlB-1sTZ8Sb46rwbeoa-236">
          <mxGeometry width="160" relative="1" as="geometry">
            <mxPoint x="1050" y="710" as="sourcePoint" />
            <mxPoint x="1210" y="710" as="targetPoint" />
          </mxGeometry>
        </mxCell>
        <mxCell id="vXlB-1sTZ8Sb46rwbeoa-241" value="RUPizzeriaApplication" style="swimlane;fontStyle=0;align=center;verticalAlign=top;childLayout=stackLayout;horizontal=1;startSize=40;horizontalStack=0;resizeParent=1;resizeLast=0;collapsible=1;marginBottom=0;rounded=0;shadow=0;strokeWidth=1;" vertex="1" parent="WIyWlLk6GJQsqaUBKTNV-1">
          <mxGeometry x="1020" y="460" width="180" height="48" as="geometry">
            <mxRectangle x="230" y="140" width="160" height="26" as="alternateBounds" />
          </mxGeometry>
        </mxCell>
        <mxCell id="vXlB-1sTZ8Sb46rwbeoa-242" value="" style="line;html=1;strokeWidth=1;align=left;verticalAlign=middle;spacingTop=-1;spacingLeft=3;spacingRight=3;rotatable=0;labelPosition=right;points=[];portConstraint=eastwest;" vertex="1" parent="vXlB-1sTZ8Sb46rwbeoa-241">
          <mxGeometry y="40" width="180" height="8" as="geometry" />
        </mxCell>
        <mxCell id="vXlB-1sTZ8Sb46rwbeoa-243" value="" style="endArrow=none;html=1;rounded=0;entryX=0.388;entryY=0.003;entryDx=0;entryDy=0;entryPerimeter=0;exitX=0.551;exitY=0.537;exitDx=0;exitDy=0;exitPerimeter=0;" edge="1" parent="WIyWlLk6GJQsqaUBKTNV-1" source="vXlB-1sTZ8Sb46rwbeoa-242" target="vXlB-1sTZ8Sb46rwbeoa-224">
          <mxGeometry relative="1" as="geometry">
            <mxPoint x="1120" y="510" as="sourcePoint" />
            <mxPoint x="1270" y="510" as="targetPoint" />
          </mxGeometry>
        </mxCell>
        <mxCell id="vXlB-1sTZ8Sb46rwbeoa-246" value="" style="endArrow=diamondThin;endFill=1;endSize=24;html=1;rounded=0;exitX=0;exitY=0.25;exitDx=0;exitDy=0;entryX=0.535;entryY=0.388;entryDx=0;entryDy=0;entryPerimeter=0;edgeStyle=orthogonalEdgeStyle;" edge="1" parent="WIyWlLk6GJQsqaUBKTNV-1" source="vXlB-1sTZ8Sb46rwbeoa-219">
          <mxGeometry width="160" relative="1" as="geometry">
            <mxPoint x="960.21" y="906.46" as="sourcePoint" />
            <mxPoint x="959.9999999999998" y="838.004" as="targetPoint" />
          </mxGeometry>
        </mxCell>
        <mxCell id="vXlB-1sTZ8Sb46rwbeoa-247" value="" style="endArrow=diamondThin;endFill=1;endSize=24;html=1;rounded=0;entryX=0.535;entryY=0.388;entryDx=0;entryDy=0;entryPerimeter=0;edgeStyle=orthogonalEdgeStyle;exitX=0;exitY=0.5;exitDx=0;exitDy=0;" edge="1" parent="WIyWlLk6GJQsqaUBKTNV-1" source="zkfFHV4jXpPFQw0GAbJ--18">
          <mxGeometry width="160" relative="1" as="geometry">
            <mxPoint x="960" y="1060" as="sourcePoint" />
            <mxPoint x="919.9999999999998" y="838.004" as="targetPoint" />
          </mxGeometry>
        </mxCell>
        <mxCell id="vXlB-1sTZ8Sb46rwbeoa-248" value="" style="endArrow=diamondThin;endFill=1;endSize=24;html=1;rounded=0;exitX=0.722;exitY=-0.006;exitDx=0;exitDy=0;entryX=0;entryY=0.5;entryDx=0;entryDy=0;edgeStyle=orthogonalEdgeStyle;exitPerimeter=0;" edge="1" parent="WIyWlLk6GJQsqaUBKTNV-1" source="vXlB-1sTZ8Sb46rwbeoa-219" target="vXlB-1sTZ8Sb46rwbeoa-230">
          <mxGeometry width="160" relative="1" as="geometry">
            <mxPoint x="1338" y="902" as="sourcePoint" />
            <mxPoint x="1249.9999999999998" y="840.004" as="targetPoint" />
          </mxGeometry>
        </mxCell>
        <mxCell id="vXlB-1sTZ8Sb46rwbeoa-249" value="" style="endArrow=diamondThin;endFill=1;endSize=24;html=1;rounded=0;exitX=0.579;exitY=-0.006;exitDx=0;exitDy=0;entryX=0.535;entryY=0.388;entryDx=0;entryDy=0;entryPerimeter=0;edgeStyle=orthogonalEdgeStyle;exitPerimeter=0;" edge="1" parent="WIyWlLk6GJQsqaUBKTNV-1" source="zkfFHV4jXpPFQw0GAbJ--17">
          <mxGeometry width="160" relative="1" as="geometry">
            <mxPoint x="1379" y="1020" as="sourcePoint" />
            <mxPoint x="1290.9999999999998" y="958.004" as="targetPoint" />
          </mxGeometry>
        </mxCell>
        <mxCell id="vXlB-1sTZ8Sb46rwbeoa-250" value="" style="endArrow=diamondThin;endFill=1;endSize=24;html=1;rounded=0;entryX=0.535;entryY=0.388;entryDx=0;entryDy=0;entryPerimeter=0;edgeStyle=orthogonalEdgeStyle;" edge="1" parent="WIyWlLk6GJQsqaUBKTNV-1">
          <mxGeometry width="160" relative="1" as="geometry">
            <mxPoint x="1190" y="958" as="sourcePoint" />
            <mxPoint x="1459.9999999999998" y="958.004" as="targetPoint" />
            <Array as="points">
              <mxPoint x="1190" y="1010" />
              <mxPoint x="1430" y="1010" />
              <mxPoint x="1430" y="958" />
            </Array>
          </mxGeometry>
        </mxCell>
        <mxCell id="vXlB-1sTZ8Sb46rwbeoa-251" value="" style="endArrow=diamondThin;endFill=1;endSize=24;html=1;rounded=0;exitX=0.807;exitY=-0.006;exitDx=0;exitDy=0;entryX=0.535;entryY=0.388;entryDx=0;entryDy=0;entryPerimeter=0;edgeStyle=orthogonalEdgeStyle;exitPerimeter=0;" edge="1" parent="WIyWlLk6GJQsqaUBKTNV-1" source="zkfFHV4jXpPFQw0GAbJ--17">
          <mxGeometry width="160" relative="1" as="geometry">
            <mxPoint x="1570" y="1060" as="sourcePoint" />
            <mxPoint x="1481.9999999999998" y="998.004" as="targetPoint" />
          </mxGeometry>
        </mxCell>
      </root>
    </mxGraphModel>
  </diagram>
</mxfile>
